<svg width="600" height="200" viewBox="0 0 600 200" fill="none" xmlns="http://www.w3.org/2000/svg">
  <!-- Icon Part (Right) -->
  <g transform="translate(420, 25) scale(0.293)">
    <rect width="512" height="512" rx="128" fill="white"/>
    <g transform="translate(86, 80)">
      <path d="M120 120V100C120 55.8172 155.817 20 200 20C244.183 20 280 55.8172 280 100V120" stroke="black" stroke-width="45" stroke-linecap="round"/>
      <path d="M40 120H360C382.091 120 400 137.909 400 160V280C400 330 360 365 310 365H90C40 365 0 330 0 280V160C0 137.909 17.9086 120 40 120Z" fill="black"/>
      <path d="M110 205V240C110 265 130 275 145 260C160 275 180 265 180 240V205" stroke="white" stroke-width="35" stroke-linecap="round" stroke-linejoin="round" fill="none"/>
      <path d="M180 240V280C180 320 110 320 110 280" stroke="white" stroke-width="35" stroke-linecap="round" stroke-linejoin="round" fill="none"/>
      <path d="M220 205V280C220 315 250 315 280 290" stroke="white" stroke-width="35" stroke-linecap="round" stroke-linejoin="round" fill="none"/>
    </g>
  </g>

  <!-- Text Part (Left) -->
  <text x="400" y="110" font-family="Tajawal, Arial, sans-serif" font-weight="900" font-size="96" fill="white" text-anchor="end">سوقك</text>
  
  <!-- Tagline Part -->
  <g transform="translate(100, 150)">
    <rect x="0" y="10" width="80" height="3" fill="white"/>
    <text x="180" y="18" font-family="Tajawal, Arial, sans-serif" font-weight="800" font-size="20" fill="white" text-anchor="middle">حراج اليمن للإعلانات المبوبة</text>
    <rect x="280" y="10" width="80" height="3" fill="white"/>
  </g>
</svg>
