<svg xmlns="http://www.w3.org/2000/svg" width="480" height="320" viewBox="0 0 480 320">
  <defs>
    <linearGradient id="bg" x1="0" x2="1" y1="0" y2="1">
      <stop offset="0" stop-color="#1d4ed8"/>
      <stop offset="1" stop-color="#1e3a8a"/>
    </linearGradient>
  </defs>
  <rect x="0" y="0" width="480" height="320" rx="24" fill="url(#bg)" opacity="0.08"/>
  <g transform="translate(40 40)">
    <rect x="0" y="0" width="280" height="200" rx="16" fill="#ffffff"/>
    <rect x="16" y="16" width="248" height="120" rx="12" fill="#e8eef7"/>
    <rect x="32" y="40" width="72" height="72" rx="12" fill="#cfe0fb"/>
    <rect x="120" y="40" width="72" height="72" rx="12" fill="#d8ecff"/>
    <rect x="208" y="40" width="40" height="72" rx="12" fill="#c8d7ee"/>
    <rect x="16" y="148" width="120" height="12" rx="6" fill="#b8c9e6"/>
    <rect x="16" y="168" width="88" height="12" rx="6" fill="#d0def2"/>
    <rect x="152" y="148" width="112" height="12" rx="6" fill="#b8c9e6"/>
    <rect x="152" y="168" width="88" height="12" rx="6" fill="#d0def2"/>
    <g transform="translate(308 0)">
      <rect x="0" y="0" width="80" height="56" rx="10" fill="#ffffff"/>
      <rect x="10" y="10" width="26" height="36" rx="6" fill="#e8eef7"/>
      <rect x="44" y="10" width="26" height="36" rx="6" fill="#e8eef7"/>
      <circle cx="20" cy="54" r="6" fill="#1d4ed8"/>
      <circle cx="60" cy="54" r="6" fill="#1d4ed8"/>
    </g>
    <g transform="translate(300 80)">
      <rect x="0" y="0" width="96" height="64" rx="12" fill="#ffffff"/>
      <rect x="10" y="10" width="40" height="44" rx="8" fill="#e8eef7"/>
      <rect x="56" y="10" width="30" height="6" rx="3" fill="#cbd7ed"/>
      <rect x="56" y="22" width="24" height="6" rx="3" fill="#dbe5f5"/>
      <rect x="56" y="34" width="28" height="6" rx="3" fill="#cbd7ed"/>
      <rect x="56" y="46" width="22" height="6" rx="3" fill="#dbe5f5"/>
    </g>
  </g>
</svg>
